<svg id="Layer_1" data-name="Layer 1"
    xmlns="http://www.w3.org/2000/svg" viewBox="0 0 248.32 167.92">
    <defs>
        <style>.cls-1{fill:#bf311a;}.cls-2{fill:#fff;}</style>
    </defs>
    <path class="cls-1" d="M489.3,255.87c-.68-4.11-1.47-8.8-1.47-8.84.65-2.93,3.27-13.67,8.34-22.73a14.51,14.51,0,0,0,9.49-13.3,14.81,14.81,0,0,0-4.33-10.46,14.3,14.3,0,0,0-9-4.14,9.77,9.77,0,0,1,2,1.53,10.37,10.37,0,0,1,3.12,7.31v.11a10.44,10.44,0,0,1-7.56,10l-.76.21-.41.69c-6.6,11-10.41,27.86-10.82,29.74l-.07.34,1.15,10Z" transform="translate(-323.03 -182.15)"/>
    <path class="cls-2" d="M449,182.15h0a15.64,15.64,0,0,0-15.49,15.63,16.46,16.46,0,0,0,.34,2.84l-4.73-3.46a1.34,1.34,0,0,0-1.35-.14,1.36,1.36,0,0,0-.78,1.12s-.14,1.81-.28,3.6a15.82,15.82,0,0,0-29.17,8.51,15.73,15.73,0,0,0,13.81,15.67c5.42,8,9.74,19.27,10.69,21.87,0,.24,0,.67,0,1l-97.63-5.56a1.34,1.34,0,0,0-1.14.53,1.33,1.33,0,0,0-.21,1.23l25.48,79.18a1.33,1.33,0,0,0,1.41.92c30-2.84,40.84-4.17,48.76-5.14l10.86-1.21,13.46,24.37a1.34,1.34,0,0,0,1.82.53l5.67-3.11a73.39,73.39,0,0,1,10.93-4.93s0,.18,0,.18a14.26,14.26,0,0,0,28.52,0,15.41,15.41,0,0,0-.18-2.19A61.76,61.76,0,0,1,480,336.57a6,6,0,0,1,.59.23l5.36,2.05a1.34,1.34,0,0,0,1.72-.74l10.62-25.36a1.32,1.32,0,0,0,.1-.51,1.37,1.37,0,0,0-.72-1.2l-.74-.38,56.71,9.89a1.36,1.36,0,0,0,1.54-1l16.16-70.88a1.33,1.33,0,0,0-.28-1.16,1.34,1.34,0,0,0-1.09-.48c-.8,0-75.9,3.36-86.76,3.82-.17-1.44-.46-3.89-.49-4.22.71-3.12,4.05-17,9.54-26.68a15.63,15.63,0,1,0-20.14-20.43L470.78,196a1.34,1.34,0,0,0-2.16-.52l-4,3.55c0-.41.12-.82.12-1.25A15.64,15.64,0,0,0,449,182.15Z" transform="translate(-323.03 -182.15)"/>
    <path class="cls-1" d="M433.08,317.58l-6.14,2.55,3.06,7.35,2.29-1-.75-1.8,3.85-1.61c2-.82,2.68-1.57,1.69-3.94S435,316.76,433.08,317.58Zm1.13,4-3.4,1.42-.83-2,3.41-1.41c.75-.31,1-.28,1.41.59S434.91,321.25,434.21,321.54Zm132.7-70.13A1.15,1.15,0,0,0,566,251l-85.2,3.18c-.45-3.91-.87-7.53-.9-7.79.5-2.27,4.2-18.5,10.59-29.14a12.43,12.43,0,0,0,9-11.89v-.11a12.41,12.41,0,0,0-24.82.11v.12a12.23,12.23,0,0,0,.58,3.45l-1.82,2.3c-1.41-4.05-3.18-8.76-3.28-9l-.92-2.43-1.93,1.73a105.1,105.1,0,0,0-7.76,7.69l-.81-3.07a12.27,12.27,0,0,0,3.29-8.38v-.12a12.35,12.35,0,0,0-24.7.11v.12a12.24,12.24,0,0,0,3.7,8.7l.21.19c-.08.66-.19,1.46-.38,2.91-1.79-1.5-4.37-3.48-7.77-6l-2.57-1.88-.25,3.17c0,.07-.41,5.1-.85,9l-3-2.83c0-.31.07-.62.07-.93v-.11a12.58,12.58,0,0,0-25.15.11v.13a12.58,12.58,0,0,0,12.39,12.45c6.36,8.74,11.39,22.36,12.1,24.31,0,.17.08,2.32.19,5.15l-95.92-5.34a1.35,1.35,0,0,0-1.32,1.75L352,320.09a1.33,1.33,0,0,0,1.25.71l66.63-6.33c-1,.61-2,1.24-2.9,1.9l-3.15,2.22,11.72,21.24,4-2.18a67.44,67.44,0,0,1,17-6.9,10.92,10.92,0,0,0-1.22,5v.1a11,11,0,0,0,22-.1v-.1a10.9,10.9,0,0,0-2-6.22,59.56,59.56,0,0,1,16.41,4l4.2,1.61,9.2-22-3.45-1.79a57.83,57.83,0,0,0-6.85-3l11.95-1.14,54.49,9.45a.86.86,0,0,0,1-.65l15-63.69A1.14,1.14,0,0,0,566.91,251.41Zm-77.34,63.82-5.25,14.71c-8.64-3.31-18.11-5.7-29.18-4.95s-20.32,4.62-28.44,9.07L419.5,320c8.79-6.2,20.88-10.45,34.42-11.37S480,310.27,489.57,315.23Zm-50.3.54,1.88,7.73,2.29-.56-1.88-7.73ZM449.84,320l5.35-5.07-.23-1.75-9.26,1.22.22,1.7,5.71-.75-5.3,5.07.25,1.89,9.54-1.25-.23-1.85Zm24.47.57,5.11,1.26.39,1.58,2.62.66L480,315.22l-3.2-.79-6.25,6.65,2.61.65Zm3.67-3.91,1,3.47-3.4-.84Zm-19.1,2.75,0,1.91,9.63.17,0-1.87-6.09-.11,6-4.22,0-1.77-9.33-.16,0,1.72,5.75.1Z" transform="translate(-323.03 -182.15)"/>
    <path class="cls-2" d="M403.5,269.3l-22.32-1.21a1.45,1.45,0,0,0-1.53,1.37l-1.56,28.72a1.45,1.45,0,0,0,1.37,1.53l22.32,1.22a1.46,1.46,0,0,0,1.53-1.37l1.56-28.73A1.45,1.45,0,0,0,403.5,269.3Zm-8.85,17.84a.73.73,0,0,1-.76.69l-5.16-.28a.73.73,0,0,1-.69-.77l.65-12a.74.74,0,0,1,.77-.69l5.16.28a.74.74,0,0,1,.69.77Z" transform="translate(-323.03 -182.15)"/>
    <path class="cls-2" d="M348.62,265.87l.66,11.2a1.46,1.46,0,0,0,1.54,1.36l6.44-.39,1.5,24,9.42-.56-1.5-23.95,6.45-.39a1.46,1.46,0,0,0,1.37-1.54l-.67-11.18Z" transform="translate(-323.03 -182.15)"/>
    <path class="cls-2" d="M433.77,265.29l-22.46.8a1.46,1.46,0,0,0-1.41,1.52l1.25,35.2a1.46,1.46,0,0,0,1.51,1.41l8.15-.29-.32-9.08.69,0a1.44,1.44,0,0,0,1.4.91l12.26-.44a1.46,1.46,0,0,0,1.41-1.51l-1-27.08A1.47,1.47,0,0,0,433.77,265.29Zm-6.93,23.88a.73.73,0,0,1-.7.76l-5.2.18a.73.73,0,0,1-.75-.71l-.44-12.11a.74.74,0,0,1,.71-.76l5.2-.18a.73.73,0,0,1,.75.71Z" transform="translate(-323.03 -182.15)"/>
    <path class="cls-2" d="M465.47,266.05,443,265.34a1.45,1.45,0,0,0-1.5,1.41L440.38,302a1.46,1.46,0,0,0,1.42,1.51l8.15.26.29-9.08.68,0a1.47,1.47,0,0,0,1.34,1l12.26.38a1.46,1.46,0,0,0,1.51-1.41l.86-27.08A1.47,1.47,0,0,0,465.47,266.05ZM457,289.4a.72.72,0,0,1-.75.71L451,290a.73.73,0,0,1-.7-.75l.38-12.12a.73.73,0,0,1,.75-.71l5.2.17a.73.73,0,0,1,.71.75Z" transform="translate(-323.03 -182.15)"/>
    <path class="cls-2" d="M497.85,287.92l-9.6.58.2,3.25-6.44.39-.36-6,16-1-1.13-18.75A1.46,1.46,0,0,0,495,265l-22.48,1.34a1.48,1.48,0,0,0-1.38,1.56l1.74,28.93a1.46,1.46,0,0,0,1.55,1.37l22.48-1.34a1.48,1.48,0,0,0,1.38-1.56ZM481.16,278a1.48,1.48,0,0,1,1.38-1.55l3.51-.21a1.47,1.47,0,0,1,1.55,1.38l.3,5-6.44.39Z" transform="translate(-323.03 -182.15)"/>
    <path class="cls-2" d="M547.76,275.51l.46-6.74a1.45,1.45,0,0,0-1.36-1.56l-22.43-1.54a1.47,1.47,0,0,0-1.56,1.37L522,280l16,1.09-.37,5.39a.88.88,0,0,1-.94.82l-4.79-.33A.88.88,0,0,1,531,286l.18-2.57-9.42-.65-.9,13.09a1.47,1.47,0,0,0,1.36,1.56L544.68,299a1.47,1.47,0,0,0,1.57-1.35l1.29-18.92-15.94-1.09.36-5.22a.88.88,0,0,1,.94-.81l4.79.33a.87.87,0,0,1,.82.93l-.14,2Z" transform="translate(-323.03 -182.15)"/>
    <path class="cls-2" d="M513.4,266.28a.55.55,0,0,0-.53.48l0,.85a.58.58,0,0,1-.56.55l-.67,0a.58.58,0,0,1-.6-.56l0-1.27-7.09.2a1.45,1.45,0,0,0-1.41,1.49l.85,30.21,9.48-.26-.51-18.19a.86.86,0,0,1,.85-.89l5-.15-.35-12.6Z" transform="translate(-323.03 -182.15)"/>
    <path class="cls-2" d="M433.92,259.08l38.5-1.69.66-5.71-40.28.37ZM487,199.17a6.18,6.18,0,0,0-4.45,10.4l-11.82,15.81-3.65-16.85-9.27,18.62-6.23-23.6a6.12,6.12,0,1,0-3.66.06l-3.24,24.29-10.37-16.46-.71,15.1-14.1-13.35a6.35,6.35,0,1,0-5.54,3.37,6.24,6.24,0,0,0,2.44-.52c12.2,15.36,15.51,25.86,16.22,32.34L473,247.12c.31-7,2.53-18.09,13.74-35.61l.43,0a6.18,6.18,0,0,0-.11-12.36Z" transform="translate(-323.03 -182.15)"/>
    <path class="cls-2" d="M458.25,330.71l1-3.5c-1.35,0-2.74,0-4.15.14-.79.06-1.57.13-2.35.21l1.35,3.22a5.45,5.45,0,1,0,4.17-.07Z" transform="translate(-323.03 -182.15)"/>
    <path class="cls-1" d="M510.75,324.8a4.26,4.26,0,1,1-4.33,4.24A4.25,4.25,0,0,1,510.75,324.8Zm0,.68a3.57,3.57,0,1,0,3.48,3.56A3.46,3.46,0,0,0,510.75,325.48Zm-.91,6h-.75V326.6H511c1.17,0,1.74.43,1.74,1.4a1.28,1.28,0,0,1-1.28,1.35l1.4,2.16H512l-1.31-2.14h-.85Zm0-2.76h.9c.92,0,1.22-.26,1.22-.8s-.23-.74-1.1-.74h-1Z" transform="translate(-323.03 -182.15)"/>
</svg>
